{"title":"Black Mass CAMRip - INFERNO","uid":12516497,"size":1356368566,"categoryP":"video","categoryS":"movies","magnet":"?xt=urn:btih:c099fb75574518ba7972b14769fd987d5438e59f&amp;dn=Black+Mass+CAMRip+-+INFERNO&amp;tr=udp%3A%2F%2Ftracker.leechers-paradise.org%3A6969&amp;tr=udp%3A%2F%2Fzer0day.ch%3A1337&amp;tr=udp%3A%2F%2Fopen.demonii.com%3A1337&amp;tr=udp%3A%2F%2Ftracker.coppersurfer.tk%3A6969&amp;tr=udp%3A%2F%2Fexodus.desync.com%3A6969","seeders":0,"leechers":0,"uploader":"xxxlavalxxx","files":3,"time":1443776899,"description":"http://extraimago.com/image/hQG\r\n \nhttp://www.imdb.com/title/tt1355683/\r\n\r\n\r\nThe true story of Whitey Bulger, the brother of a state senator and the most infamous violent criminal in the history of South Boston, who became an FBI informant to take down a Mafia family invading his turf.\r\n\r\nDirector: Scott Cooper\r\nWriters: Mark Mallouk (screenplay), Jez Butterworth (screenplay)\r\nStars: Johnny Depp, Benedict Cumberbatch, Dakota Johnson\r\nGenres: Biography | Crime | Drama\r\nCountry: USA\r\nLanguage: English\r\n\r\n\r\nGeneral\r\nComplete name : Black Mass 2015 CAMRip XviD -INFERNO\r\nFormat : AVI\r\nFormat/Info : Audio Video Interleave\r\nFile size : 1.24 GiB\r\nDuration : 1h 54mn\r\nOverall bit rate : 1 552 Kbps\r\n\r\nVideo\r\nID : 0\r\nFormat : MPEG-4 Visual\r\nFormat profile : Advanced   \r\nFormat settings, BVOP : 2\r\nFormat settings, QPel : No\r\nFormat settings, GMC : No warppoints\r\nFormat settings, Matrix : Default (H.263)\r\nMuxing mode : Packed bitstream\r\nCodec ID : XVID\r\nCodec ID/Hint : XviD\r\nDuration : 1h 54mn\r\nBit rate : 1 416 Kbps\r\nWidth : 624 pixels\r\nHeight : 256 pixels\r\nDisplay aspect ratio : 2.40:1\r\nFrame rate : 29.970 fps\r\nColor space : YUV\r\nChroma subsampling : 4:2:0\r\nBit depth : 8 bits\r\nScan type : Progressive\r\nCompression mode : Lossy\r\nBits/(Pixel*Frame) : 0.296\r\nStream size : 1.13 GiB (91%)\r\nWriting library : XviD 64\r\n\r\nAudio\r\nID : 1\r\nFormat : MPEG Audio\r\nFormat version : Version 1\r\nFormat profile : Layer 3\r\nMode : Joint stereo\r\nMode extension : MS Stereo\r\nCodec ID : 55\r\nCodec ID/Hint : MP3\r\nDuration : 1h 54mn\r\nBit rate mode : Constant\r\nBit rate : 128 Kbps\r\nChannel(s) : 2 channels\r\nSampling rate : 48.0 KHz\r\nCompression mode : Lossy\r\nStream size : 105 MiB (8%)\r\nAlignment : Aligned on interleaves\r\nInterleave, duration : 133 ms (4.00 video frames)\r\nInterleave, preload duration : 216 ms\r\n\r\n\r\nSOURCE: Black Mass 2015 Cam English Audio Latino Subs. Thanks who ever you are?\r\n\r\nREADNFO: SOURCE WAS 1024X576 = 1.77 AND HAD 2 LINES OF LATIN SUBS,PRETTY BAD FLICKER,NOISE,ORANGE/REDISH FACES,SOMEWHAT BLURRY ETC!\r\n\r\nWORK DONE: NOT MUCH WE COULD DO ABOUT THE BLUR BUT WE RESIZED,CROPPED TOP AND BOTTOM BLACK BARS,BLURRED BOTTOM LINE OF SUBS AS WE DIDN'T WANNA CROP IT AND LOSE ANY VIDEO AND LEFT THE TOP LINE AS IS CAUSE WE DIDN'T WANNA BLUR THEIR LIPS LOL.\r\nNEXT WE ADJUSTED SATURATION -28 (TO TRY AND GET RID OF THE RED/ORANGE FACES) INTENSITY +4 BRIGHT +10 AND CONTRAST - 4 TO TRY AND BRIGHTEN IT UP A BIT WITHOUT WASHING IT OUT ALTHO IT SEEMS LIKE IT WAS FILMED IN SOMEWHAT OF A 1970'S SETTING. LAST THING WE DID WAS RUN A FILTER TO TRY AND REMOVE SOME OF THE FLICKER AND NOISE AND RAN THE ENCODE THE END. THERE IS STILL SOME FLICKER!\r\n\r\nAUDIO WAS A LITTLE OOS SO DID OUR BEST :D\r\n\r\nIS THERE GONNA BE BETTER? WE ARE SURE THERE IS AND HOPE THERE IS!!! IN THE MEAN TIME WE FOUND THIS AND DID WHAT WE COULD :) IF YOU DON'T WANT IT THAT'S COOL JUST KEEP IT MOVING! FOR THOSE THAT APPRECIATE IT'S PEOPLE LIKE YOU THAT KEEP THE CAPPERS,ENCODERS,UPLOADERS AND P2P ALIVE THANKS :wink:\r\n\r\nRATINGS....V/5 A/7 BUT THAT IS OUR OPINION FOR A CAM.\r\n\r\n1 SAMPLE INCLUDED SO CHECK IT FIRST!!!!!!!!!!!\r\n \nhttp://extraimago.com/image/hQ4 \nhttp://extraimago.com/image/hQB \nhttp://extraimago.com/image/hQC \nhttp://extraimago.com/image/hQY \nhttp://extraimago.com/image/hQp \nhttp://extraimago.com/image/hQr","torrent":{"xt":"urn:btih:c099fb75574518ba7972b14769fd987d5438e59f","amp;dn":"Black+Mass+CAMRip+-+INFERNO","amp;tr":["udp%3A%2F%2Ftracker.leechers-paradise.org%3A6969","udp%3A%2F%2Fzer0day.ch%3A1337","udp%3A%2F%2Fopen.demonii.com%3A1337","udp%3A%2F%2Ftracker.coppersurfer.tk%3A6969","udp%3A%2F%2Fexodus.desync.com%3A6969"],"infoHash":"c099fb75574518ba7972b14769fd987d5438e59f","infoHashBuffer":{"type":"Buffer","data":[192,153,251,117,87,69,24,186,121,114,177,71,105,253,152,125,84,56,229,159]},"announce":[],"urlList":[]}}